The Emperor's New Groove 
http://www.imdb.com/title/tt0120917/


Source  :

The.Emperor's.New.Groove.2000.720p.HDTV.x264-W23


Info:

ID                               : 1
Format                           : AVC
Format/Info                      : Advanced Video Codec
Format profile                   : Baseline@L2.0
Format settings, CABAC           : No
Format settings, ReFrames        : 3 frames
Codec ID                         : avc1
Codec ID/Info                    : Advanced Video Coding
Duration                         : 1h 14mn
Bit rate mode                    : Variable
Bit rate                         : 400 Kbps
Width                            : 368 pixels
Height                           : 272 pixels
Display aspect ratio             : 4:3
Frame rate mode                  : Variable
Frame rate                       : 23.976 fps
Minimum frame rate               : 23.810 fps
Maximum frame rate               : 24.390 fps
Color space                      : YUV
Chroma subsampling               : 4:2:0
Bit depth                        : 8 bits
Scan type                        : Progressive
Bits/(Pixel*Frame)               : 0.167
Stream size                      : 212 MiB (75%)
Writing library                  : x264 core 79

ID                               : 2
Format                           : AAC
Format/Info                      : Advanced Audio Codec
Format version                   : Version 4
Format profile                   : LC
Format settings, SBR             : No
Codec ID                         : 40
Duration                         : 1h 14mn
Bit rate mode                    : Variable
Bit rate                         : 128 Kbps
Maximum bit rate                 : 188 Kbps
Channel(s)                       : 2 channels Dolby Pro Logic II
Channel positions                : Front: L R
Sampling rate                    : 48.0 KHz
Stream size                      : 67.8 MiB (24%)
Language                         : English


Screens : 
http://img810.imageshack.us/img810/2578/theemperorsnewgroovepsp.jpg


PLEASE LET THE TORRENT SEED AND SHARE IT WITH ALL YOU KNOW!

Let me know what I can do to be your trusted source of Handheld videos. 
http://thepiratebay.org/user/on.off.on/ -OOO